<svg width="480" height="480" viewBox="0 0 480 480" fill="none" xmlns="http://www.w3.org/2000/svg">
<rect width="480" height="480" fill="white"/>
<circle cx="240.5" cy="148.5" r="98" fill="white" stroke="black"/>
<circle cx="171.611" cy="123.41" r="18.7025" fill="black"/>
<circle cx="160.474" cy="120.621" r="6.23418" fill="white"/>
<circle cx="220.951" cy="126.377" r="24.9367" fill="black"/>
<circle cx="237.812" cy="125.035" r="6.23418" fill="white"/>
<path d="M186.886 429.038C186.886 429.038 185.656 230.586 186.886 230.791C194.367 232.038 211.823 248.247 245.487 247C272.918 245.984 287.796 233.749 307.829 222.063C322.791 213.335 316.557 429.038 316.557 429.038H186.886Z" fill="#F05133" stroke="black"/>
<path d="M217.867 334.431C217.867 334.864 217.89 335.479 217.936 336.276C218.004 337.074 218.072 337.951 218.141 338.908C218.232 339.842 218.323 340.811 218.414 341.813C218.505 342.793 218.585 343.693 218.653 344.514C218.744 345.311 218.813 345.983 218.858 346.53C218.927 347.054 218.961 347.328 218.961 347.351C218.961 347.601 218.881 347.818 218.722 348C218.562 348.182 218.323 348.285 218.004 348.308C217.753 348.308 217.537 348.228 217.354 348.068C217.195 347.909 217.104 347.704 217.081 347.453C217.081 347.385 217.047 347.134 216.979 346.701C216.933 346.245 216.876 345.687 216.808 345.026C216.739 344.343 216.66 343.579 216.568 342.736C216.477 341.893 216.386 341.039 216.295 340.173C216.227 339.307 216.158 338.475 216.09 337.678C216.021 336.88 215.976 336.174 215.953 335.559C215.93 335.559 215.395 335.479 214.347 335.319C213.321 335.16 211.92 335.08 210.143 335.08C209.482 335.08 208.798 335.103 208.092 335.148C207.408 335.194 206.747 335.251 206.109 335.319C205.471 335.365 204.879 335.422 204.332 335.49C203.785 335.536 203.329 335.581 202.965 335.627C202.988 336.219 203.033 336.926 203.102 337.746C203.17 338.544 203.238 339.375 203.307 340.241C203.398 341.107 203.478 341.962 203.546 342.805C203.637 343.625 203.717 344.377 203.785 345.061C203.854 345.721 203.91 346.268 203.956 346.701C204.002 347.111 204.024 347.328 204.024 347.351C204.024 347.601 203.945 347.818 203.785 348C203.626 348.182 203.386 348.285 203.067 348.308C202.817 348.308 202.6 348.228 202.418 348.068C202.258 347.909 202.167 347.704 202.145 347.453C202.122 347.385 202.076 347.077 202.008 346.53C201.962 345.983 201.894 345.311 201.803 344.514C201.734 343.693 201.655 342.793 201.563 341.813C201.472 340.834 201.381 339.877 201.29 338.942C201.222 337.985 201.153 337.108 201.085 336.311C201.039 335.513 201.017 334.886 201.017 334.431C201.017 333.747 200.982 332.87 200.914 331.799C200.868 330.728 200.8 329.634 200.709 328.518C200.618 327.378 200.515 326.296 200.401 325.271C200.287 324.245 200.174 323.425 200.06 322.81C200.06 322.582 200.139 322.377 200.299 322.194C200.458 322.012 200.698 321.898 201.017 321.853C201.244 321.853 201.438 321.921 201.598 322.058C201.78 322.194 201.894 322.377 201.939 322.604C202.053 323.197 202.167 323.972 202.281 324.929C202.395 325.863 202.486 326.866 202.555 327.937C202.646 328.985 202.714 330.021 202.76 331.047C202.828 332.072 202.874 332.95 202.896 333.679C203.284 333.633 203.751 333.588 204.298 333.542C204.845 333.474 205.437 333.417 206.075 333.371C206.736 333.303 207.408 333.257 208.092 333.234C208.798 333.189 209.482 333.166 210.143 333.166C211.601 333.166 212.82 333.223 213.8 333.337C214.802 333.451 215.509 333.542 215.919 333.61C215.896 332.836 215.851 331.947 215.782 330.944C215.737 329.919 215.668 328.905 215.577 327.902C215.486 326.877 215.383 325.909 215.27 324.997C215.178 324.086 215.087 323.356 214.996 322.81C214.996 322.582 215.076 322.377 215.235 322.194C215.395 322.012 215.634 321.898 215.953 321.853C216.181 321.853 216.375 321.921 216.534 322.058C216.716 322.194 216.83 322.377 216.876 322.604C217.013 323.243 217.138 324.097 217.252 325.168C217.366 326.216 217.468 327.321 217.56 328.483C217.651 329.646 217.719 330.773 217.765 331.867C217.833 332.938 217.867 333.793 217.867 334.431ZM229.591 346.804C230.024 346.804 230.571 346.599 231.231 346.188C231.915 345.756 232.576 345.163 233.214 344.411C233.852 343.636 234.399 342.714 234.854 341.643C235.31 340.572 235.538 339.375 235.538 338.054C235.538 336.778 235.379 335.661 235.06 334.704C234.763 333.724 234.41 332.904 234 332.243C233.613 331.56 233.214 331.047 232.804 330.705C232.416 330.363 232.132 330.17 231.949 330.124C231.562 330.124 231.209 330.158 230.89 330.227C230.593 330.272 230.388 330.306 230.274 330.329C230.001 330.329 229.75 330.215 229.522 329.987C228.953 330.215 228.36 330.728 227.745 331.525C227.13 332.323 226.56 333.257 226.036 334.328C225.512 335.376 225.079 336.504 224.737 337.712C224.396 338.897 224.225 339.991 224.225 340.993C224.225 342.041 224.407 342.941 224.771 343.693C225.136 344.423 225.592 345.015 226.139 345.471C226.686 345.926 227.267 346.268 227.882 346.496C228.497 346.701 229.067 346.804 229.591 346.804ZM231.983 328.21C232.462 328.21 233.009 328.449 233.624 328.928C234.262 329.383 234.854 330.044 235.401 330.91C235.971 331.753 236.45 332.779 236.837 333.986C237.247 335.194 237.452 336.55 237.452 338.054C237.452 339.58 237.19 340.993 236.666 342.292C236.142 343.591 235.481 344.719 234.684 345.676C233.909 346.633 233.054 347.385 232.12 347.932C231.209 348.456 230.366 348.718 229.591 348.718C228.702 348.718 227.825 348.547 226.959 348.205C226.093 347.863 225.318 347.373 224.635 346.735C223.951 346.075 223.393 345.266 222.96 344.309C222.527 343.352 222.311 342.246 222.311 340.993C222.311 340.196 222.413 339.318 222.618 338.361C222.823 337.404 223.097 336.447 223.438 335.49C223.803 334.51 224.225 333.576 224.703 332.688C225.204 331.776 225.74 330.967 226.31 330.261C226.879 329.554 227.483 328.996 228.121 328.586C228.759 328.153 229.409 327.937 230.069 327.937C230.32 327.937 230.536 327.971 230.719 328.039C230.924 328.085 231.106 328.153 231.266 328.244C231.38 328.244 231.493 328.244 231.607 328.244C231.721 328.221 231.847 328.21 231.983 328.21ZM247.364 346.804C247.797 346.804 248.344 346.599 249.005 346.188C249.688 345.756 250.349 345.163 250.987 344.411C251.625 343.636 252.172 342.714 252.628 341.643C253.084 340.572 253.312 339.375 253.312 338.054C253.312 336.778 253.152 335.661 252.833 334.704C252.537 333.724 252.184 332.904 251.773 332.243C251.386 331.56 250.987 331.047 250.577 330.705C250.19 330.363 249.905 330.17 249.723 330.124C249.335 330.124 248.982 330.158 248.663 330.227C248.367 330.272 248.162 330.306 248.048 330.329C247.774 330.329 247.524 330.215 247.296 329.987C246.726 330.215 246.134 330.728 245.519 331.525C244.903 332.323 244.334 333.257 243.81 334.328C243.285 335.376 242.853 336.504 242.511 337.712C242.169 338.897 241.998 339.991 241.998 340.993C241.998 342.041 242.18 342.941 242.545 343.693C242.91 344.423 243.365 345.015 243.912 345.471C244.459 345.926 245.04 346.268 245.655 346.496C246.271 346.701 246.84 346.804 247.364 346.804ZM249.757 328.21C250.235 328.21 250.782 328.449 251.397 328.928C252.035 329.383 252.628 330.044 253.175 330.91C253.744 331.753 254.223 332.779 254.61 333.986C255.021 335.194 255.226 336.55 255.226 338.054C255.226 339.58 254.964 340.993 254.439 342.292C253.915 343.591 253.255 344.719 252.457 345.676C251.682 346.633 250.828 347.385 249.894 347.932C248.982 348.456 248.139 348.718 247.364 348.718C246.476 348.718 245.598 348.547 244.732 348.205C243.867 347.863 243.092 347.373 242.408 346.735C241.725 346.075 241.166 345.266 240.733 344.309C240.3 343.352 240.084 342.246 240.084 340.993C240.084 340.196 240.187 339.318 240.392 338.361C240.597 337.404 240.87 336.447 241.212 335.49C241.576 334.51 241.998 333.576 242.477 332.688C242.978 331.776 243.513 330.967 244.083 330.261C244.653 329.554 245.257 328.996 245.895 328.586C246.533 328.153 247.182 327.937 247.843 327.937C248.093 327.937 248.31 327.971 248.492 328.039C248.697 328.085 248.88 328.153 249.039 328.244C249.153 328.244 249.267 328.244 249.381 328.244C249.495 328.221 249.62 328.21 249.757 328.21ZM268.761 338.806C269.011 339.125 269.387 339.558 269.889 340.104C270.413 340.651 270.982 341.244 271.598 341.882C272.213 342.52 272.84 343.169 273.478 343.83C274.138 344.491 274.731 345.095 275.255 345.642C275.802 346.166 276.246 346.61 276.588 346.975C276.93 347.316 277.112 347.487 277.135 347.487C277.34 347.67 277.442 347.897 277.442 348.171C277.442 348.399 277.351 348.627 277.169 348.854C276.941 349.037 276.713 349.128 276.485 349.128C276.212 349.128 275.984 349.037 275.802 348.854C275.756 348.809 275.551 348.604 275.187 348.239C274.822 347.875 274.366 347.43 273.819 346.906C273.272 346.359 272.669 345.756 272.008 345.095C271.37 344.434 270.732 343.785 270.094 343.146C269.479 342.486 268.909 341.882 268.385 341.335C267.883 340.788 267.507 340.344 267.257 340.002C266.756 339.387 266.197 338.692 265.582 337.917C264.967 337.142 264.329 336.402 263.668 335.695C263.281 336.037 262.905 336.379 262.54 336.721C262.198 337.062 261.879 337.37 261.583 337.644C261.469 337.757 261.321 337.849 261.139 337.917C261.275 339.079 261.424 340.253 261.583 341.438C261.743 342.6 261.891 343.659 262.027 344.616C262.164 345.573 262.278 346.359 262.369 346.975C262.46 347.59 262.506 347.932 262.506 348C262.506 348.251 262.426 348.456 262.267 348.615C262.107 348.798 261.868 348.911 261.549 348.957C261.321 348.957 261.116 348.877 260.934 348.718C260.774 348.581 260.672 348.387 260.626 348.137C260.626 348.068 260.569 347.738 260.455 347.146C260.364 346.553 260.25 345.812 260.113 344.924C259.999 344.035 259.863 343.044 259.703 341.95C259.566 340.834 259.43 339.717 259.293 338.601C259.156 337.461 259.042 336.379 258.951 335.354C258.883 334.328 258.849 333.439 258.849 332.688C258.849 331.594 258.814 330.432 258.746 329.201C258.678 327.971 258.598 326.831 258.507 325.783C258.438 324.712 258.37 323.824 258.302 323.117C258.233 322.411 258.199 322.035 258.199 321.989C258.199 321.739 258.279 321.534 258.438 321.374C258.621 321.192 258.86 321.078 259.156 321.032C259.407 321.032 259.623 321.123 259.806 321.306C259.988 321.465 260.09 321.67 260.113 321.921C260.113 321.989 260.147 322.377 260.216 323.083C260.284 323.789 260.353 324.678 260.421 325.749C260.512 326.797 260.592 327.937 260.66 329.167C260.729 330.397 260.763 331.571 260.763 332.688C260.763 333.098 260.774 333.553 260.797 334.055C260.842 334.533 260.888 335.069 260.934 335.661C261.207 335.41 261.526 335.114 261.891 334.772C262.255 334.431 262.62 334.1 262.984 333.781C263.372 333.439 263.748 333.132 264.112 332.858C264.477 332.562 264.785 332.346 265.035 332.209C265.286 332.072 265.571 331.833 265.89 331.491C266.231 331.149 266.562 330.796 266.881 330.432C267.291 329.976 267.69 329.554 268.077 329.167C268.487 328.78 268.886 328.483 269.273 328.278C269.41 328.21 269.558 328.176 269.718 328.176C270.082 328.176 270.367 328.335 270.572 328.654C270.641 328.791 270.675 328.951 270.675 329.133C270.675 329.292 270.629 329.452 270.538 329.611C270.47 329.748 270.344 329.862 270.162 329.953C269.911 330.09 269.615 330.329 269.273 330.671C268.954 331.013 268.635 331.366 268.316 331.73C267.906 332.186 267.507 332.608 267.12 332.995C266.733 333.382 266.345 333.679 265.958 333.884C265.799 333.975 265.525 334.169 265.138 334.465C265.799 335.194 266.437 335.946 267.052 336.721C267.69 337.495 268.259 338.19 268.761 338.806ZM292.789 328.552C293.108 328.734 293.268 329.007 293.268 329.372C293.268 329.577 293.222 329.737 293.131 329.851L292.857 330.329C292.675 330.671 292.447 331.104 292.174 331.628C291.9 332.129 291.604 332.688 291.285 333.303C290.966 333.895 290.67 334.476 290.396 335.046C290.169 335.524 290.021 335.923 289.952 336.242C289.884 336.538 289.827 336.857 289.781 337.199C289.736 337.427 289.69 337.666 289.645 337.917C289.622 338.168 289.565 338.464 289.474 338.806C289.405 339.125 289.303 339.489 289.166 339.899C289.029 340.31 288.847 340.777 288.619 341.301C288.118 342.44 287.799 343.386 287.662 344.138C287.525 344.867 287.411 345.596 287.32 346.325L287.252 347.248C287.252 347.408 287.218 347.556 287.149 347.692C287.104 347.943 287.058 348.194 287.013 348.444C286.967 348.718 286.91 349.014 286.842 349.333C286.66 350.108 286.489 350.734 286.329 351.213C286.192 351.714 286.044 352.193 285.885 352.648C285.702 353.173 285.509 353.754 285.304 354.392C285.121 355.03 284.916 355.907 284.688 357.023C284.483 358.049 284.301 358.994 284.142 359.86C283.982 360.749 283.857 361.512 283.766 362.15C283.674 362.788 283.606 363.29 283.561 363.654L283.492 364.201C283.447 364.452 283.333 364.646 283.15 364.782C282.968 364.942 282.729 365.021 282.433 365.021C281.863 364.953 281.578 364.6 281.578 363.962C281.578 363.939 281.601 363.734 281.646 363.347C281.715 362.982 281.795 362.469 281.886 361.809C281.977 361.171 282.102 360.407 282.262 359.519C282.421 358.653 282.604 357.696 282.809 356.647C282.923 356.055 283.036 355.531 283.15 355.075C283.264 354.619 283.367 354.209 283.458 353.845C283.572 353.48 283.674 353.15 283.766 352.854C283.88 352.557 283.982 352.272 284.073 351.999C284.233 351.566 284.381 351.122 284.518 350.666C284.654 350.21 284.802 349.629 284.962 348.923C285.03 348.649 285.076 348.387 285.099 348.137C285.144 347.909 285.19 347.681 285.235 347.453C285.007 347.134 284.688 346.69 284.278 346.12C283.891 345.528 283.515 344.912 283.15 344.274C282.945 343.91 282.649 343.443 282.262 342.873C281.874 342.281 281.464 341.677 281.031 341.062C280.621 340.446 280.211 339.865 279.801 339.318C279.413 338.749 279.106 338.293 278.878 337.951L278.604 337.541C278.468 337.359 278.285 337.006 278.058 336.481C277.853 335.957 277.534 335.148 277.101 334.055C276.918 333.622 276.736 333.177 276.554 332.722C276.371 332.266 276.189 331.833 276.007 331.423C275.847 330.99 275.688 330.614 275.528 330.295C275.369 329.953 275.232 329.691 275.118 329.509C275.027 329.281 274.981 329.121 274.981 329.03C274.981 328.666 275.141 328.392 275.46 328.21C275.574 328.119 275.733 328.073 275.938 328.073C276.326 328.073 276.599 328.221 276.759 328.518C277.009 328.951 277.328 329.623 277.716 330.534C278.103 331.423 278.491 332.368 278.878 333.371C279.015 333.69 279.14 334.021 279.254 334.362C279.391 334.681 279.516 334.989 279.63 335.285C279.767 335.559 279.881 335.809 279.972 336.037C280.063 336.265 280.131 336.413 280.177 336.481L280.45 336.857C280.678 337.199 280.986 337.655 281.373 338.225C281.783 338.794 282.205 339.398 282.638 340.036C283.071 340.674 283.481 341.289 283.868 341.882C284.256 342.474 284.563 342.953 284.791 343.317C284.905 343.545 285.03 343.773 285.167 344.001C285.326 344.206 285.475 344.423 285.611 344.65C285.725 344.104 285.862 343.511 286.021 342.873C286.204 342.212 286.477 341.449 286.842 340.583C287.229 339.626 287.48 338.885 287.594 338.361C287.73 337.814 287.833 337.336 287.901 336.926C287.947 336.538 288.015 336.14 288.106 335.729C288.198 335.319 288.38 334.818 288.653 334.226C288.927 333.656 289.223 333.063 289.542 332.448C289.861 331.833 290.157 331.275 290.431 330.773C290.727 330.249 290.966 329.816 291.148 329.475C291.354 329.133 291.467 328.939 291.49 328.894C291.673 328.575 291.946 328.415 292.311 328.415C292.516 328.415 292.675 328.461 292.789 328.552Z" fill="#57F681"/>
<path d="M208.997 307V299.909H210.05V301.017H210.142C210.29 300.638 210.528 300.345 210.858 300.135C211.187 299.923 211.582 299.817 212.044 299.817C212.512 299.817 212.901 299.923 213.212 300.135C213.526 300.345 213.771 300.638 213.946 301.017H214.02C214.201 300.651 214.474 300.36 214.837 300.145C215.2 299.926 215.636 299.817 216.143 299.817C216.777 299.817 217.296 300.015 217.699 300.412C218.102 300.806 218.304 301.42 218.304 302.254V307H217.214V302.254C217.214 301.731 217.071 301.357 216.785 301.132C216.499 300.908 216.162 300.795 215.774 300.795C215.276 300.795 214.889 300.946 214.615 301.248C214.342 301.546 214.205 301.925 214.205 302.384V307H213.097V302.143C213.097 301.74 212.966 301.416 212.704 301.169C212.443 300.92 212.106 300.795 211.693 300.795C211.41 300.795 211.145 300.871 210.899 301.022C210.656 301.172 210.459 301.382 210.308 301.65C210.161 301.914 210.087 302.22 210.087 302.568V307H208.997ZM220.744 309.659C220.559 309.659 220.394 309.644 220.25 309.613C220.105 309.585 220.005 309.558 219.95 309.53L220.227 308.57C220.491 308.637 220.725 308.662 220.928 308.643C221.132 308.625 221.312 308.534 221.469 308.371C221.629 308.211 221.775 307.951 221.907 307.591L222.11 307.037L219.488 299.909H220.67L222.627 305.56H222.701L224.659 299.909H225.84L222.83 308.034C222.695 308.4 222.527 308.703 222.327 308.944C222.127 309.187 221.895 309.367 221.63 309.484C221.369 309.601 221.073 309.659 220.744 309.659ZM232.024 302.734V307H230.935V299.909H231.987V301.017H232.08C232.246 300.657 232.498 300.368 232.837 300.149C233.175 299.928 233.612 299.817 234.148 299.817C234.628 299.817 235.048 299.915 235.408 300.112C235.768 300.306 236.048 300.602 236.248 300.999C236.448 301.393 236.548 301.891 236.548 302.494V307H235.459V302.568C235.459 302.011 235.314 301.577 235.025 301.266C234.736 300.952 234.339 300.795 233.834 300.795C233.486 300.795 233.175 300.871 232.901 301.022C232.63 301.172 232.417 301.393 232.26 301.682C232.103 301.971 232.024 302.322 232.024 302.734ZM240.626 307.166C240.176 307.166 239.769 307.082 239.402 306.912C239.036 306.74 238.745 306.492 238.53 306.169C238.314 305.843 238.207 305.449 238.207 304.987C238.207 304.581 238.287 304.252 238.447 303.999C238.607 303.744 238.821 303.544 239.089 303.399C239.356 303.254 239.652 303.147 239.975 303.076C240.301 303.002 240.629 302.944 240.958 302.901C241.389 302.845 241.738 302.804 242.006 302.776C242.277 302.745 242.474 302.694 242.597 302.624C242.723 302.553 242.786 302.43 242.786 302.254V302.217C242.786 301.762 242.662 301.408 242.412 301.156C242.166 300.903 241.792 300.777 241.291 300.777C240.77 300.777 240.363 300.891 240.067 301.119C239.772 301.346 239.564 301.589 239.444 301.848L238.41 301.479C238.595 301.048 238.841 300.712 239.149 300.472C239.459 300.229 239.798 300.06 240.164 299.964C240.533 299.866 240.897 299.817 241.254 299.817C241.481 299.817 241.743 299.844 242.038 299.9C242.337 299.952 242.625 300.061 242.902 300.228C243.182 300.394 243.414 300.645 243.599 300.98C243.783 301.316 243.876 301.765 243.876 302.328V307H242.786V306.04H242.731C242.657 306.194 242.534 306.358 242.362 306.534C242.189 306.709 241.96 306.858 241.674 306.982C241.388 307.105 241.038 307.166 240.626 307.166ZM240.792 306.188C241.223 306.188 241.586 306.103 241.881 305.934C242.18 305.764 242.405 305.546 242.555 305.278C242.709 305.01 242.786 304.729 242.786 304.433V303.436C242.74 303.491 242.639 303.542 242.482 303.588C242.328 303.632 242.149 303.67 241.946 303.704C241.746 303.735 241.551 303.762 241.36 303.787C241.172 303.808 241.02 303.827 240.903 303.842C240.62 303.879 240.355 303.939 240.109 304.022C239.866 304.102 239.669 304.224 239.518 304.387C239.37 304.547 239.296 304.766 239.296 305.043C239.296 305.421 239.436 305.707 239.716 305.901C239.999 306.092 240.358 306.188 240.792 306.188ZM245.864 307V299.909H246.917V301.017H247.009C247.157 300.638 247.395 300.345 247.725 300.135C248.054 299.923 248.45 299.817 248.911 299.817C249.379 299.817 249.768 299.923 250.079 300.135C250.393 300.345 250.638 300.638 250.813 301.017H250.887C251.069 300.651 251.341 300.36 251.704 300.145C252.067 299.926 252.503 299.817 253.011 299.817C253.645 299.817 254.163 300.015 254.566 300.412C254.97 300.806 255.171 301.42 255.171 302.254V307H254.082V302.254C254.082 301.731 253.939 301.357 253.652 301.132C253.366 300.908 253.029 300.795 252.641 300.795C252.143 300.795 251.757 300.946 251.483 301.248C251.209 301.546 251.072 301.925 251.072 302.384V307H249.964V302.143C249.964 301.74 249.833 301.416 249.571 301.169C249.31 300.92 248.973 300.795 248.56 300.795C248.277 300.795 248.013 300.871 247.766 301.022C247.523 301.172 247.326 301.382 247.175 301.65C247.028 301.914 246.954 302.22 246.954 302.568V307H245.864ZM260.136 307.148C259.453 307.148 258.864 306.997 258.368 306.695C257.876 306.391 257.496 305.966 257.228 305.421C256.963 304.873 256.831 304.236 256.831 303.51C256.831 302.784 256.963 302.143 257.228 301.589C257.496 301.032 257.868 300.598 258.345 300.288C258.825 299.974 259.385 299.817 260.025 299.817C260.395 299.817 260.759 299.878 261.119 300.001C261.48 300.125 261.807 300.325 262.103 300.602C262.398 300.875 262.634 301.239 262.809 301.691C262.985 302.143 263.072 302.701 263.072 303.362V303.824H257.606V302.882H261.964C261.964 302.482 261.884 302.125 261.724 301.811C261.567 301.497 261.343 301.249 261.05 301.068C260.761 300.886 260.419 300.795 260.025 300.795C259.591 300.795 259.216 300.903 258.899 301.119C258.585 301.331 258.343 301.608 258.174 301.95C258.005 302.291 257.92 302.657 257.92 303.048V303.676C257.92 304.212 258.013 304.666 258.197 305.038C258.385 305.407 258.645 305.689 258.977 305.883C259.31 306.074 259.696 306.169 260.136 306.169C260.422 306.169 260.681 306.129 260.912 306.049C261.146 305.966 261.347 305.843 261.517 305.68C261.686 305.513 261.817 305.307 261.909 305.061L262.961 305.357C262.851 305.714 262.664 306.027 262.403 306.298C262.141 306.566 261.818 306.775 261.433 306.926C261.049 307.074 260.616 307.148 260.136 307.148ZM268.386 307V299.909H269.475V307H268.386ZM268.94 298.727C268.727 298.727 268.544 298.655 268.39 298.51C268.24 298.366 268.164 298.192 268.164 297.989C268.164 297.786 268.24 297.612 268.39 297.467C268.544 297.322 268.727 297.25 268.94 297.25C269.152 297.25 269.334 297.322 269.485 297.467C269.638 297.612 269.715 297.786 269.715 297.989C269.715 298.192 269.638 298.366 269.485 298.51C269.334 298.655 269.152 298.727 268.94 298.727ZM276.494 301.497L275.515 301.774C275.453 301.611 275.362 301.453 275.242 301.299C275.126 301.142 274.965 301.012 274.762 300.911C274.559 300.809 274.299 300.759 273.982 300.759C273.548 300.759 273.187 300.859 272.897 301.059C272.611 301.256 272.468 301.506 272.468 301.811C272.468 302.082 272.566 302.296 272.763 302.453C272.96 302.61 273.268 302.741 273.687 302.845L274.739 303.104C275.373 303.258 275.846 303.493 276.157 303.81C276.467 304.124 276.623 304.529 276.623 305.024C276.623 305.43 276.506 305.794 276.272 306.114C276.041 306.434 275.718 306.686 275.302 306.871C274.887 307.055 274.404 307.148 273.853 307.148C273.13 307.148 272.531 306.991 272.057 306.677C271.583 306.363 271.283 305.904 271.157 305.301L272.191 305.043C272.289 305.424 272.476 305.71 272.75 305.901C273.027 306.092 273.388 306.188 273.834 306.188C274.342 306.188 274.745 306.08 275.044 305.864C275.346 305.646 275.496 305.384 275.496 305.08C275.496 304.833 275.41 304.627 275.238 304.461C275.065 304.292 274.801 304.165 274.444 304.082L273.262 303.805C272.613 303.652 272.136 303.413 271.831 303.09C271.529 302.764 271.378 302.356 271.378 301.866C271.378 301.466 271.491 301.112 271.715 300.805C271.943 300.497 272.253 300.255 272.643 300.08C273.037 299.904 273.484 299.817 273.982 299.817C274.684 299.817 275.235 299.971 275.635 300.278C276.038 300.586 276.324 300.992 276.494 301.497Z" fill="white"/>
<path d="M212.29 292V273.091H214.58V281.511H224.662V273.091H226.952V292H224.662V283.543H214.58V292H212.29ZM237.186 292.295C235.82 292.295 234.641 291.994 233.65 291.391C232.665 290.781 231.905 289.932 231.37 288.842C230.84 287.747 230.576 286.473 230.576 285.02C230.576 283.567 230.84 282.287 231.37 281.179C231.905 280.065 232.65 279.197 233.604 278.575C234.564 277.947 235.685 277.634 236.965 277.634C237.703 277.634 238.433 277.757 239.153 278.003C239.873 278.249 240.529 278.649 241.12 279.203C241.711 279.751 242.181 280.477 242.532 281.382C242.883 282.287 243.059 283.401 243.059 284.724V285.648H232.127V283.764H240.843C240.843 282.964 240.683 282.25 240.363 281.622C240.049 280.994 239.599 280.499 239.015 280.136C238.436 279.772 237.753 279.591 236.965 279.591C236.097 279.591 235.346 279.806 234.712 280.237C234.084 280.662 233.601 281.216 233.262 281.899C232.924 282.582 232.755 283.315 232.755 284.097V285.352C232.755 286.423 232.939 287.331 233.309 288.076C233.684 288.815 234.204 289.378 234.869 289.766C235.534 290.147 236.306 290.338 237.186 290.338C237.759 290.338 238.276 290.258 238.738 290.098C239.205 289.932 239.609 289.686 239.947 289.359C240.286 289.027 240.547 288.615 240.732 288.122L242.837 288.713C242.615 289.427 242.243 290.055 241.72 290.597C241.197 291.132 240.55 291.551 239.781 291.852C239.011 292.148 238.147 292.295 237.186 292.295ZM248.552 273.091V292H246.373V273.091H248.552ZM254.722 273.091V292H252.543V273.091H254.722ZM264.474 292.295C263.194 292.295 262.071 291.991 261.104 291.381C260.144 290.772 259.393 289.92 258.852 288.824C258.316 287.728 258.048 286.448 258.048 284.983C258.048 283.506 258.316 282.216 258.852 281.114C259.393 280.013 260.144 279.157 261.104 278.548C262.071 277.938 263.194 277.634 264.474 277.634C265.755 277.634 266.875 277.938 267.835 278.548C268.802 279.157 269.553 280.013 270.088 281.114C270.63 282.216 270.901 283.506 270.901 284.983C270.901 286.448 270.63 287.728 270.088 288.824C269.553 289.92 268.802 290.772 267.835 291.381C266.875 291.991 265.755 292.295 264.474 292.295ZM264.474 290.338C265.447 290.338 266.247 290.089 266.875 289.59C267.503 289.092 267.968 288.436 268.269 287.624C268.571 286.811 268.722 285.931 268.722 284.983C268.722 284.035 268.571 283.152 268.269 282.333C267.968 281.514 267.503 280.853 266.875 280.348C266.247 279.843 265.447 279.591 264.474 279.591C263.502 279.591 262.702 279.843 262.074 280.348C261.446 280.853 260.981 281.514 260.68 282.333C260.378 283.152 260.227 284.035 260.227 284.983C260.227 285.931 260.378 286.811 260.68 287.624C260.981 288.436 261.446 289.092 262.074 289.59C262.702 290.089 263.502 290.338 264.474 290.338Z" fill="white"/>
<path d="M215.8 209.403C219.399 213.074 223.446 212.45 226.378 209.566C229.993 206.009 229.534 202.16 225.943 198.498C222.352 194.836 218.014 197.174 218.014 197.174L173.483 151.765C173.483 151.765 168.879 144.172 169.458 136.554C169.915 130.559 171.566 126.965 175.767 122.704C180.624 117.778 185.188 116.295 192.143 116.223C201.52 116.127 208.224 122.963 208.224 122.963L201.706 129.355C201.706 129.355 206.196 127.276 211.811 127.587C217.821 127.92 222.138 130.391 222.138 130.391L211.604 119.649C211.604 119.649 203.943 111.836 192.646 110.941C188.538 110.616 178.692 113.131 172.415 119.286C167.803 123.809 164.637 131.038 164.642 138.404C164.647 145.233 165.294 150.176 170.103 155.079C174.652 159.718 214.393 200.725 214.393 200.725C214.393 200.725 211.969 205.497 215.8 209.403Z" fill="#444444" stroke="#444444"/>
</svg>
